<svg xmlns="http://www.w3.org/2000/svg" width="147" height="99" viewBox="0 0 147 99">
<g>
<path d="M 37.00 78.58 C24.45,80.26 21.96,80.26 15.75,78.59 C5.30,75.78 4.17,70.56 12.25,62.50 C17.36,57.40 29.57,49.00 31.86,49.00 C34.90,49.00 32.49,53.59 26.40,59.41 C18.94,66.55 18.55,68.52 24.00,71.25 C30.39,74.44 45.31,73.15 67.11,67.52 C85.42,62.79 95.81,58.86 114.00,49.80 C126.45,43.59 138.62,34.13 134.25,34.04 C133.01,34.02 132.00,33.63 132.00,33.17 C132.00,32.33 140.32,26.00 141.41,26.00 C141.74,26.00 142.00,28.53 142.00,31.62 C142.00,36.68 141.84,37.11 140.39,35.90 C138.98,34.74 138.37,35.07 135.68,38.41 C123.65,53.41 73.89,73.67 37.00,78.58 Z" fill="rgb(16,11,56)"/>
<path d="M 119.00 72.23 L 119.00 93.00 L 98.00 93.00 L 98.12 81.25 C98.18,74.79 98.43,70.22 98.66,71.11 C99.60,74.64 108.16,75.97 114.91,73.64 ZM 108.40 50.05 C103.84,52.22 99.64,54.00 99.06,54.00 C98.40,54.00 98.00,50.82 98.00,45.50 C98.00,37.57 98.14,37.00 100.07,37.00 L 102.15 37.00 L 100.07 34.37 C98.75,32.68 98.05,30.42 98.14,28.12 C98.22,25.93 98.44,25.36 98.70,26.68 C99.32,29.87 101.13,30.96 107.53,32.00 C112.64,32.84 113.55,32.71 115.88,30.87 L 118.50 28.81 L 118.80 36.00 C118.98,40.56 118.65,43.72 117.88,44.64 C117.22,45.44 112.95,47.88 108.40,50.05 ZM 76.22 62.56 C71.99,63.90 67.96,65.00 67.26,65.00 C65.88,65.00 65.55,57.37 66.64,50.75 L 67.26 47.00 L 76.01 47.00 C85.69,47.00 86.59,46.52 87.26,41.00 C87.49,39.07 87.75,42.10 87.84,47.71 C87.85,48.38 87.86,49.00 87.87,49.59 C87.96,54.03 88.01,56.34 86.94,57.88 C85.65,59.75 82.71,60.50 76.22,62.56 ZM 54.50 68.00 C53.12,68.53 48.39,69.25 44.00,69.62 L 36.00 70.29 L 36.00 62.07 C36.00,54.97 36.19,54.05 37.42,55.28 C39.36,57.21 50.53,58.31 53.33,56.84 C54.52,56.21 55.83,55.21 56.23,54.60 C56.64,54.00 56.98,56.55 56.98,60.27 C57.00,66.59 56.83,67.11 54.50,68.00 ZM 88.00 85.28 L 88.00 93.00 L 77.00 93.00 C66.15,93.00 66.00,92.97 66.00,90.67 C66.00,89.40 67.12,87.29 68.50,86.00 C71.52,83.16 71.67,82.00 69.00,82.00 C67.59,82.00 67.00,81.34 67.02,79.75 C67.02,78.44 67.34,77.97 67.77,78.62 C68.80,80.19 71.59,80.91 78.73,81.47 C84.27,81.90 85.08,81.72 86.46,79.75 C87.90,77.69 88.00,78.04 88.00,85.28 ZM 58.00 90.06 L 58.00 93.00 L 36.00 93.00 L 36.00 87.50 C36.00,81.67 36.73,80.74 38.77,84.00 C39.78,85.63 41.10,86.00 45.81,86.00 C48.99,86.00 52.05,85.55 52.59,85.01 C54.31,83.29 58.00,86.74 58.00,90.06 Z" fill="rgb(109,43,178)"/>
<path d="M 100.19 37.00 C102.32,37.00 102.30,36.93 99.69,34.20 C97.13,31.52 97.00,30.90 97.00,21.13 C97.00,11.37 97.87,7.46 100.40,5.77 C101.00,5.36 104.76,5.02 108.75,5.02 C120.10,4.99 120.11,5.01 119.77,26.75 L 119.50 44.46 L 112.91 47.76 C115.49,46.38 117.45,45.16 117.88,44.64 C118.65,43.72 118.98,40.56 118.80,36.00 L 118.50 28.81 L 115.88 30.87 C113.55,32.71 112.64,32.84 107.53,32.00 C101.13,30.96 99.32,29.87 98.70,26.68 C98.44,25.36 98.22,25.93 98.14,28.12 C98.05,30.42 98.75,32.68 100.07,34.37 L 102.15 37.00 ZM 66.05 56.40 C66.02,54.04 66.01,51.05 66.02,47.25 C66.02,37.49 66.36,29.00 66.77,28.39 C67.91,26.67 74.45,25.84 81.05,26.59 C88.56,27.44 90.21,29.50 86.98,34.03 L 84.86 37.00 L 86.97 37.00 C88.99,37.00 89.06,37.40 88.78,47.73 L 88.50 58.45 L 83.74 60.06 C85.32,59.42 86.32,58.78 86.94,57.88 C88.01,56.34 87.96,54.03 87.87,49.59 C87.86,49.00 87.85,48.38 87.84,47.71 C87.75,42.10 87.49,39.07 87.26,41.00 C86.59,46.52 85.69,47.00 76.01,47.00 L 67.26 47.00 L 66.64 50.75 C66.33,52.62 66.14,54.57 66.05,56.40 ZM 119.00 72.23 L 114.91 73.64 C108.16,75.97 99.60,74.64 98.66,71.11 C98.43,70.22 98.18,74.79 98.12,81.25 L 98.00 93.00 L 97.00 93.00 L 97.00 63.95 L 99.75 62.94 C101.26,62.38 106.44,59.91 111.25,57.44 L 120.00 52.97 L 120.00 93.00 L 119.00 93.00 ZM 45.50 69.57 C40.55,70.34 36.16,70.97 35.75,70.98 C35.34,70.99 35.00,65.18 35.00,58.06 C35.00,42.35 35.26,42.00 46.72,42.00 C57.24,42.00 58.00,42.97 58.00,56.39 C58.00,57.17 58.00,57.90 58.01,58.58 C58.03,62.94 58.04,65.21 56.93,66.56 C56.45,67.15 55.77,67.56 54.78,67.89 C56.84,67.06 57.00,66.32 56.98,60.27 C56.98,56.55 56.64,54.00 56.23,54.60 C55.83,55.21 54.52,56.21 53.33,56.84 C50.53,58.31 39.36,57.21 37.42,55.28 C36.19,54.05 36.00,54.97 36.00,62.07 L 36.00 70.29 L 44.00 69.62 C45.21,69.52 46.45,69.39 47.64,69.25 C46.97,69.35 46.26,69.45 45.50,69.57 ZM 88.00 85.28 C88.00,78.04 87.90,77.69 86.46,79.75 C85.08,81.72 84.27,81.90 78.73,81.47 C71.59,80.91 68.80,80.19 67.77,78.62 C67.34,77.97 67.02,78.44 67.02,79.75 C67.00,81.34 67.59,82.00 69.00,82.00 C71.67,82.00 71.52,83.16 68.50,86.00 C67.69,86.76 66.96,87.81 66.51,88.80 C66.87,87.86 67.40,86.84 67.99,86.02 L 69.97 83.23 L 67.92 82.69 C66.24,82.25 65.93,81.49 66.19,78.47 L 66.50 74.79 L 77.00 71.40 C82.78,69.53 87.84,68.00 88.25,68.00 C88.66,68.00 89.00,73.62 89.00,80.50 L 89.00 93.00 L 88.00 93.00 ZM 57.52 87.89 C56.46,85.47 53.93,83.67 52.59,85.01 C52.05,85.55 48.99,86.00 45.81,86.00 C41.10,86.00 39.78,85.63 38.77,84.00 C36.73,80.74 36.00,81.67 36.00,87.50 L 36.00 93.00 L 35.00 93.00 L 35.00 87.02 C35.00,86.68 35.00,86.36 35.00,86.06 C34.99,83.74 34.98,82.42 35.61,81.60 C36.51,80.42 38.70,80.23 44.00,79.51 L 44.12 79.49 C54.66,78.04 57.20,77.70 57.81,78.62 C58.00,78.91 58.00,79.33 58.00,79.88 L 58.00 79.90 C58.00,81.09 57.31,82.33 56.46,82.65 C55.08,83.18 55.08,83.48 56.46,85.59 C56.87,86.21 57.24,87.04 57.52,87.89 ZM 76.22 62.56 C77.00,62.31 77.73,62.08 78.40,61.87 C73.40,63.55 68.68,64.91 67.75,64.94 C67.74,64.94 67.72,64.94 67.71,64.94 C69.04,64.70 72.55,63.72 76.22,62.56 ZM 105.84 51.25 C102.42,52.86 99.75,53.99 99.25,53.99 C99.23,53.99 99.20,53.99 99.18,53.99 C99.90,53.85 102.59,52.74 105.84,51.25 ZM 98.58 53.32 C98.17,52.24 98.00,49.79 98.00,45.50 C98.00,49.37 98.21,52.11 98.58,53.32 ZM 98.00 45.50 C98.00,39.58 98.06,37.77 98.91,37.23 C98.08,37.78 98.00,39.61 98.00,45.50 ZM 66.00 90.85 C66.00,91.26 66.02,91.60 66.13,91.87 C66.02,91.61 66.00,91.29 66.00,90.90 C66.00,90.89 66.00,90.87 66.00,90.85 Z" fill="rgb(151,69,217)"/>
<path d="M 0.00 49.50 L 0.00 0.00 L 73.50 0.00 L 147.00 0.00 L 147.00 49.50 L 147.00 99.00 L 73.50 99.00 L 0.00 99.00 L 0.00 49.50 ZM 58.00 90.46 C58.00,89.07 57.31,86.87 56.46,85.59 C55.08,83.48 55.08,83.18 56.46,82.65 C57.31,82.33 58.00,81.09 58.00,79.90 C58.00,77.58 58.04,77.58 44.00,79.51 C34.49,80.81 35.00,80.39 35.00,87.02 L 35.00 93.00 L 46.50 93.00 L 58.00 93.00 L 58.00 90.46 ZM 89.00 80.50 C89.00,73.62 88.66,68.00 88.25,68.00 C87.84,68.00 82.78,69.53 77.00,71.40 L 66.50 74.79 L 66.19 78.47 C65.93,81.49 66.24,82.25 67.92,82.69 L 69.97 83.23 L 67.99 86.02 C66.89,87.55 66.00,89.75 66.00,90.90 C66.00,92.91 66.49,93.00 77.50,93.00 L 89.00 93.00 L 89.00 80.50 ZM 120.00 72.98 L 120.00 52.97 L 111.25 57.44 C106.44,59.91 101.26,62.38 99.75,62.94 L 97.00 63.95 L 97.00 78.48 L 97.00 93.00 L 108.50 93.00 L 120.00 93.00 L 120.00 72.98 ZM 37.00 78.58 C73.89,73.67 123.65,53.41 135.68,38.41 C138.37,35.07 138.98,34.74 140.39,35.90 C141.84,37.11 142.00,36.68 142.00,31.62 C142.00,28.53 141.74,26.00 141.41,26.00 C140.32,26.00 132.00,32.33 132.00,33.17 C132.00,33.63 133.01,34.02 134.25,34.04 C138.62,34.13 126.45,43.59 114.00,49.80 C95.81,58.86 85.42,62.79 67.11,67.52 C45.31,73.15 30.39,74.44 24.00,71.25 C18.55,68.52 18.94,66.55 26.40,59.41 C32.49,53.59 34.90,49.00 31.86,49.00 C29.57,49.00 17.36,57.40 12.25,62.50 C4.17,70.56 5.30,75.78 15.75,78.59 C21.96,80.26 24.45,80.26 37.00,78.58 ZM 45.50 69.57 C58.92,67.49 58.00,68.47 58.00,56.39 C58.00,42.97 57.24,42.00 46.72,42.00 C35.26,42.00 35.00,42.35 35.00,58.06 C35.00,65.18 35.34,70.99 35.75,70.98 C36.16,70.97 40.55,70.34 45.50,69.57 ZM 79.00 61.67 L 88.50 58.45 L 88.78 47.73 C89.06,37.40 88.99,37.00 86.97,37.00 L 84.86 37.00 L 86.98 34.03 C90.21,29.50 88.56,27.44 81.05,26.59 C74.45,25.84 67.91,26.67 66.77,28.39 C66.36,29.00 66.02,37.49 66.02,47.25 C66.00,63.52 66.15,65.00 67.75,64.94 C68.71,64.91 73.78,63.44 79.00,61.67 ZM 110.00 49.22 L 119.50 44.46 L 119.77 26.75 C120.11,5.01 120.10,4.99 108.75,5.02 C104.76,5.02 101.00,5.36 100.40,5.77 C97.87,7.46 97.00,11.37 97.00,21.13 C97.00,30.90 97.13,31.52 99.69,34.20 C102.30,36.93 102.32,37.00 100.19,37.00 C98.11,37.00 98.00,37.42 98.00,45.50 C98.00,51.64 98.35,54.00 99.25,53.99 C99.94,53.98 104.78,51.84 110.00,49.22 Z" fill="rgb(252,250,253)"/>
</g>
</svg>